# xmcd
#
# Track frame offsets: 
#        150
#        10720
#        21682
#        35712
#        46875
#        60470
#        71485
#        80887
#        91905
#        102957
#        116392
#        128547
#        140100
#        152060
#        163802
#        179187
#        190260
#        201082
#        212200
#        223505
#        233452
#        244925
#        256877
#        269170
#        280807
#        292625
#        303312
#        315167
#        326305
#        340637
#
# Disc length: 4719 seconds
#
# Revision: 0
# Processed by: cddbd v1.5.2PL0 Copyright (c) Steve Scherf et al.
# Submitted via: ExactAudioCopy v0.99pb5
#
DISCID=b3126d1e
DTITLE=Bob Wills and His Texas Playboys - Faded Love 1947-1973 [CD3]
DYEAR=2005
DGENRE=Country
TTITLE0=Twinkle Star
TTITLE1=Brown Skin Gal
TTITLE2=Sittin' On Top Of The World
TTITLE3=Silver Bell
TTITLE4=The Last Goodbye
TTITLE5=Just To Be Loved
TTITLE6=Send Me A Red Rose
TTITLE7=Hubblin' It
TTITLE8=I Can't Stand This Loneliness
TTITLE9=Yodel Mountain
TTITLE10=Three Miles South Of Cash
TTITLE11=Fiddlin' Man
TTITLE12=Ida Red
TTITLE13=Deep Water
TTITLE14=Sittin' On Top Of The World
TTITLE15=Blue Prelude
TTITLE16=You Always Keep Me In Hot Water
TTITLE17='Cause I'm In Love
TTITLE18=Three Miles South Of Cash In Arkansas
TTITLE19=I'm All Alone
TTITLE20=Three Little Kittens
TTITLE21=I Won't Be Back Tonight
TTITLE22=Charlie Changed His Mind
TTITLE23=I'm Only A Friend (Why Do You Call Me Your Sweetheart)
TTITLE24=Steamboat Stomp
TTITLE25=I Want To Be Wanted
TTITLE26=Snatchin' And Grabbin'
TTITLE27=A Red Hot Needle (And A Burning Thread)
TTITLE28=Trouble, Trouble Blues
TTITLE29=Trouble, Trouble Blues
EXTD=
EXTT0=
EXTT1=
EXTT2=
EXTT3=
EXTT4=
EXTT5=
EXTT6=
EXTT7=
EXTT8=
EXTT9=
EXTT10=
EXTT11=
EXTT12=
EXTT13=
EXTT14=
EXTT15=
EXTT16=
EXTT17=
EXTT18=
EXTT19=
EXTT20=
EXTT21=
EXTT22=
EXTT23=
EXTT24=
EXTT25=
EXTT26=
EXTT27=
EXTT28=
EXTT29=
PLAYORDER=
